<?xml version="1.0" encoding="utf-8"?>
<!-- Generated by Mocodo 4.2.1 -->
<svg width="602" height="635" viewBox="0 0 602 635" xmlns="http://www.w3.org/2000/svg">
<rect x="0" y="0" width="602" height="635" fill="#ffffbf" stroke="none" stroke-width="0"/>

<!-- Association ANALYSER -->
<g>
	<line x1="201" y1="102" x2="68" y2="102" stroke="#66bd63" stroke-width="2"/>
	<line x1="68" y1="296" x2="68" y2="102" stroke="#66bd63" stroke-width="2"/>
	<g>
		<path d="M94 77 a14 14 90 0 1 14 14 V102 h-80 V91 a14 14 90 0 1 14 -14" fill="#a6d96a" stroke="#a6d96a" stroke-width="0"/>
		<path d="M108 102 v11 a14 14 90 0 1 -14 14 H42 a14 14 90 0 1 -14 -14 V102 H80" fill="#d9ef8b" stroke="#d9ef8b" stroke-width="0"/>
		<rect x="28" y="77" width="80" height="50" fill="none" rx="14" stroke="#66bd63" stroke-width="2"/>
		<line x1="28" y1="102" x2="108" y2="102" stroke="#66bd63" stroke-width="1"/>
		<text x="36" y="94.75" fill="#000000" font-family="Verdana" font-size="12">ANALYSER</text>
	</g>
	<text x="119" y="119" fill="#d73027" font-family="Verdana" font-size="12">0,1</text>
	<text x="73" y="254" fill="#d73027" font-family="Verdana" font-size="12">1,N</text>
</g>

<!-- Association SUIVRE -->
<g>
	<line x1="321" y1="296" x2="321" y2="102" stroke="#66bd63" stroke-width="2"/>
	<line x1="443" y1="102" x2="321" y2="102" stroke="#66bd63" stroke-width="2"/>
	<g>
		<path d="M338 77 a14 14 90 0 1 14 14 V102 h-62 V91 a14 14 90 0 1 14 -14" fill="#a6d96a" stroke="#a6d96a" stroke-width="0"/>
		<path d="M352 102 v11 a14 14 90 0 1 -14 14 H304 a14 14 90 0 1 -14 -14 V102 H62" fill="#d9ef8b" stroke="#d9ef8b" stroke-width="0"/>
		<rect x="290" y="77" width="62" height="50" fill="none" rx="14" stroke="#66bd63" stroke-width="2"/>
		<line x1="290" y1="102" x2="352" y2="102" stroke="#66bd63" stroke-width="1"/>
		<text x="298" y="94.75" fill="#000000" font-family="Verdana" font-size="12">SUIVRE</text>
	</g>
	<text x="326" y="212" fill="#d73027" font-family="Verdana" font-size="12">0,N</text>
	<text x="366" y="119" fill="#d73027" font-family="Verdana" font-size="12">0,N</text>
</g>

<!-- Association DF0 -->
<g>
	<line x1="443" y1="102" x2="546" y2="102" stroke="#66bd63" stroke-width="2"/>
	<line x1="546" y1="296" x2="546" y2="102" stroke="#66bd63" stroke-width="2"/>
	<g>
		<circle cx="546" cy="102" r="16" stroke="#66bd63" stroke-width="2" fill="#a6d96a"/>
		<text x="537" y="106" fill="#000000" font-family="Verdana" font-size="12">DF</text>
	</g>
	<text x="498" y="119" fill="#d73027" font-family="Verdana" font-size="12">1,N</text>
	<text x="551" y="229" fill="#d73027" font-family="Verdana" font-size="12">1,1</text>
</g>

<!-- Association JOUER -->
<g>
	<line x1="321" y1="296" x2="201" y2="296" stroke="#66bd63" stroke-width="2"/>
	<line x1="68" y1="296" x2="201" y2="296" stroke="#66bd63" stroke-width="2"/>
	<g>
		<path d="M215 271 a14 14 90 0 1 14 14 V296 h-56 V285 a14 14 90 0 1 14 -14" fill="#a6d96a" stroke="#a6d96a" stroke-width="0"/>
		<path d="M229 296 v11 a14 14 90 0 1 -14 14 H187 a14 14 90 0 1 -14 -14 V296 H56" fill="#d9ef8b" stroke="#d9ef8b" stroke-width="0"/>
		<rect x="173" y="271" width="56" height="50" fill="none" rx="14" stroke="#66bd63" stroke-width="2"/>
		<line x1="173" y1="296" x2="229" y2="296" stroke="#66bd63" stroke-width="1"/>
		<text x="181" y="288.75" fill="#000000" font-family="Verdana" font-size="12">JOUER</text>
	</g>
	<text x="234" y="313" fill="#d73027" font-family="Verdana" font-size="12">0,N</text>
	<text x="100" y="313" fill="#d73027" font-family="Verdana" font-size="12">1,N</text>
</g>

<!-- Association DF1 -->
<g>
	<line x1="321" y1="296" x2="443" y2="296" stroke="#66bd63" stroke-width="2"/>
	<line x1="546" y1="296" x2="443" y2="296" stroke="#66bd63" stroke-width="2"/>
	<g>
		<circle cx="443" cy="296" r="16" stroke="#66bd63" stroke-width="2" fill="#a6d96a"/>
		<text x="434" y="300" fill="#000000" font-family="Verdana" font-size="12">DF</text>
	</g>
	<text x="386" y="288" fill="#d73027" font-family="Verdana" font-size="12">1,1</text>
	<text x="473" y="313" fill="#d73027" font-family="Verdana" font-size="12">1,1</text>
</g>

<!-- Association RENCONTRER -->
<g>
	<line x1="68" y1="296" x2="68" y2="482" stroke="#66bd63" stroke-width="2"/>
	<line x1="201" y1="482" x2="68" y2="482" stroke="#66bd63" stroke-width="2"/>
	<g>
		<path d="M113 448 a14 14 90 0 1 14 14 V473 h-118 V462 a14 14 90 0 1 14 -14" fill="#a6d96a" stroke="#a6d96a" stroke-width="0"/>
		<path d="M127 473 v29 a14 14 90 0 1 -14 14 H23 a14 14 90 0 1 -14 -14 V473 H118" fill="#d9ef8b" stroke="#d9ef8b" stroke-width="0"/>
		<rect x="9" y="448" width="118" height="68" fill="none" rx="14" stroke="#66bd63" stroke-width="2"/>
		<line x1="9" y1="473" x2="127" y2="473" stroke="#66bd63" stroke-width="1"/>
		<text x="26" y="465.75" fill="#000000" font-family="Verdana" font-size="12">RENCONTRER</text>
		<text x="16" y="490.8" fill="#000000" font-family="Verdana" font-size="12">comme domicile</text>
		<text x="16" y="507.8" fill="#000000" font-family="Verdana" font-size="12">comme extérieur</text>
	</g>
	<text x="73" y="347" fill="#d73027" font-family="Verdana" font-size="12">0,N</text>
	<text x="132" y="499" fill="#d73027" font-family="Verdana" font-size="12">0,N</text>
</g>

<!-- Association RATTACHER -->
<g>
	<line x1="201" y1="482" x2="321" y2="482" stroke="#66bd63" stroke-width="2"/>
	<line x1="321" y1="296" x2="321" y2="482" stroke="#66bd63" stroke-width="2"/>
	<g>
		<path d="M351 457 a14 14 90 0 1 14 14 V482 h-88 V471 a14 14 90 0 1 14 -14" fill="#a6d96a" stroke="#a6d96a" stroke-width="0"/>
		<path d="M365 482 v11 a14 14 90 0 1 -14 14 H291 a14 14 90 0 1 -14 -14 V482 H88" fill="#d9ef8b" stroke="#d9ef8b" stroke-width="0"/>
		<rect x="277" y="457" width="88" height="50" fill="none" rx="14" stroke="#66bd63" stroke-width="2"/>
		<line x1="277" y1="482" x2="365" y2="482" stroke="#66bd63" stroke-width="1"/>
		<text x="284" y="474.75" fill="#000000" font-family="Verdana" font-size="12">RATTACHER</text>
		<text x="284" y="499.8" fill="#000000" font-family="Verdana" font-size="12">saison</text>
	</g>
	<text x="248" y="499" fill="#d73027" font-family="Verdana" font-size="12">0,N</text>
	<text x="294" y="389" fill="#d73027" font-family="Verdana" font-size="12">1,N</text>
</g>

<!-- Association APPARTENIR -->
<g>
	<line x1="443" y1="592" x2="443" y2="482" stroke="#66bd63" stroke-width="2"/>
	<line x1="321" y1="296" x2="443" y2="482" stroke="#66bd63" stroke-width="2"/>
	<g>
		<path d="M475 457 a14 14 90 0 1 14 14 V482 h-92 V471 a14 14 90 0 1 14 -14" fill="#a6d96a" stroke="#a6d96a" stroke-width="0"/>
		<path d="M489 482 v11 a14 14 90 0 1 -14 14 H411 a14 14 90 0 1 -14 -14 V482 H92" fill="#d9ef8b" stroke="#d9ef8b" stroke-width="0"/>
		<rect x="397" y="457" width="92" height="50" fill="none" rx="14" stroke="#66bd63" stroke-width="2"/>
		<line x1="397" y1="482" x2="489" y2="482" stroke="#66bd63" stroke-width="1"/>
		<text x="404" y="474.75" fill="#000000" font-family="Verdana" font-size="12">APPARTENIR</text>
	</g>
	<text x="448" y="550" fill="#d73027" font-family="Verdana" font-size="12">0,N</text>
	<text x="349.89" y="389" fill="#d73027" font-family="Verdana" font-size="12">1,1</text>
</g>

<!-- Association DF2 -->
<g>
	<line x1="546" y1="296" x2="546" y2="482" stroke="#66bd63" stroke-width="2"/>
	<line x1="546" y1="592" x2="546" y2="482" stroke="#66bd63" stroke-width="2"/>
	<g>
		<circle cx="546" cy="482" r="16" stroke="#66bd63" stroke-width="2" fill="#a6d96a"/>
		<text x="537" y="486" fill="#000000" font-family="Verdana" font-size="12">DF</text>
	</g>
	<text x="551" y="372" fill="#d73027" font-family="Verdana" font-size="12">1,1</text>
	<text x="551" y="550" fill="#d73027" font-family="Verdana" font-size="12">1,N</text>
</g>

<!-- Entity STATISTIQUE -->
<g>
	<g>
		<rect x="145" y="9" width="112" height="25" fill="#fdae61" stroke="none" stroke-width="0" opacity="1"/>
		<rect x="145" y="34" width="112" height="161" fill="#fee08b" stroke="none" stroke-width="0" opacity="1"/>
		<rect x="145" y="9" width="112" height="186" fill="none" stroke="#f46d43" stroke-width="2" opacity="1"/>
		<line x1="145" y1="34" x2="257" y2="34" stroke="#f46d43" stroke-width="1"/>
	</g>
	<text x="159" y="26.75" fill="#000000" font-family="Verdana" font-size="12">STATISTIQUE</text>
	<text x="150" y="51.8" fill="#000000" font-family="Verdana" font-size="12">code stats</text>
	<line x1="150" y1="54" x2="213" y2="54" stroke="#000000" stroke-width="1"/>
	<text x="150" y="68.8" fill="#000000" font-family="Verdana" font-size="12">passes Décisives</text>
	<text x="150" y="85.8" fill="#000000" font-family="Verdana" font-size="12">buts marqués</text>
	<text x="150" y="102.8" fill="#000000" font-family="Verdana" font-size="12">minutes jouées</text>
	<text x="150" y="119.8" fill="#000000" font-family="Verdana" font-size="12">carton rouge</text>
	<text x="150" y="136.8" fill="#000000" font-family="Verdana" font-size="12">carton jaune</text>
	<text x="150" y="153.8" fill="#000000" font-family="Verdana" font-size="12">arrêts</text>
	<text x="150" y="170.8" fill="#000000" font-family="Verdana" font-size="12">buts encaissés</text>
	<text x="150" y="187.8" fill="#000000" font-family="Verdana" font-size="12">forme physique</text>
</g>

<!-- Entity RECRUTEUR -->
<g>
	<g>
		<rect x="393" y="60" width="100" height="25" fill="#fdae61" stroke="none" stroke-width="0" opacity="1"/>
		<rect x="393" y="85" width="100" height="59" fill="#fee08b" stroke="none" stroke-width="0" opacity="1"/>
		<rect x="393" y="60" width="100" height="84" fill="none" stroke="#f46d43" stroke-width="2" opacity="1"/>
		<line x1="393" y1="85" x2="493" y2="85" stroke="#f46d43" stroke-width="1"/>
	</g>
	<text x="406" y="77.75" fill="#000000" font-family="Verdana" font-size="12">RECRUTEUR</text>
	<text x="398" y="102.8" fill="#000000" font-family="Verdana" font-size="12">code recruteur</text>
	<line x1="398" y1="105" x2="487" y2="105" stroke="#000000" stroke-width="1"/>
	<text x="398" y="119.8" fill="#000000" font-family="Verdana" font-size="12">club</text>
	<text x="398" y="136.8" fill="#000000" font-family="Verdana" font-size="12">ville</text>
</g>

<!-- Entity MATCH -->
<g>
	<g>
		<rect x="41" y="262" width="54" height="25" fill="#fdae61" stroke="none" stroke-width="0" opacity="1"/>
		<rect x="41" y="287" width="54" height="43" fill="#fee08b" stroke="none" stroke-width="0" opacity="1"/>
		<rect x="41" y="262" width="54" height="68" fill="none" stroke="#f46d43" stroke-width="2" opacity="1"/>
		<line x1="41" y1="287" x2="95" y2="287" stroke="#f46d43" stroke-width="1"/>
	</g>
	<text x="46" y="279.75" fill="#000000" font-family="Verdana" font-size="12">MATCH</text>
	<text x="46" y="304.8" fill="#000000" font-family="Verdana" font-size="12">id</text>
	<line x1="46" y1="307" x2="58" y2="307" stroke="#000000" stroke-width="1"/>
	<text x="46" y="321.8" fill="#000000" font-family="Verdana" font-size="12">score</text>
</g>

<!-- Entity JOUEUR -->
<g>
	<g>
		<rect x="261" y="220" width="120" height="25" fill="#fdae61" stroke="none" stroke-width="0" opacity="1"/>
		<rect x="261" y="245" width="120" height="127" fill="#fee08b" stroke="none" stroke-width="0" opacity="1"/>
		<rect x="261" y="220" width="120" height="152" fill="none" stroke="#f46d43" stroke-width="2" opacity="1"/>
		<line x1="261" y1="245" x2="381" y2="245" stroke="#f46d43" stroke-width="1"/>
	</g>
	<text x="297" y="237.75" fill="#000000" font-family="Verdana" font-size="12">JOUEUR</text>
	<text x="266" y="262.8" fill="#000000" font-family="Verdana" font-size="12">code joueur</text>
	<line x1="266" y1="265" x2="338" y2="265" stroke="#000000" stroke-width="1"/>
	<text x="266" y="279.8" fill="#000000" font-family="Verdana" font-size="12">date de naissance</text>
	<text x="266" y="296.8" fill="#000000" font-family="Verdana" font-size="12">nationalité</text>
	<text x="266" y="313.8" fill="#000000" font-family="Verdana" font-size="12">avatar</text>
	<text x="266" y="330.8" fill="#000000" font-family="Verdana" font-size="12">genre</text>
	<text x="266" y="347.8" fill="#000000" font-family="Verdana" font-size="12">pied fort</text>
	<text x="266" y="364.8" fill="#000000" font-family="Verdana" font-size="12">nb de match joué</text>
</g>

<!-- Entity UTILISATEUR -->
<g>
	<g>
		<rect x="499" y="237" width="94" height="25" fill="#fdae61" stroke="none" stroke-width="0" opacity="1"/>
		<rect x="499" y="262" width="94" height="93" fill="#fee08b" stroke="none" stroke-width="0" opacity="1"/>
		<rect x="499" y="237" width="94" height="118" fill="none" stroke="#f46d43" stroke-width="2" opacity="1"/>
		<line x1="499" y1="262" x2="593" y2="262" stroke="#f46d43" stroke-width="1"/>
	</g>
	<text x="505" y="254.75" fill="#000000" font-family="Verdana" font-size="12">UTILISATEUR</text>
	<text x="504" y="279.8" fill="#000000" font-family="Verdana" font-size="12">code user</text>
	<line x1="504" y1="282" x2="563" y2="282" stroke="#000000" stroke-width="1"/>
	<text x="504" y="296.8" fill="#000000" font-family="Verdana" font-size="12">nom</text>
	<text x="504" y="313.8" fill="#000000" font-family="Verdana" font-size="12">prénom</text>
	<text x="504" y="330.8" fill="#000000" font-family="Verdana" font-size="12">email</text>
	<text x="504" y="347.8" fill="#000000" font-family="Verdana" font-size="12">mot de passe</text>
</g>

<!-- Entity EQUIPES -->
<g>
	<g>
		<rect x="159" y="397" width="84" height="25" fill="#fdae61" stroke="none" stroke-width="0" opacity="1"/>
		<rect x="159" y="422" width="84" height="145" fill="#fee08b" stroke="none" stroke-width="0" opacity="1"/>
		<rect x="159" y="397" width="84" height="170" fill="none" stroke="#f46d43" stroke-width="2" opacity="1"/>
		<line x1="159" y1="422" x2="243" y2="422" stroke="#f46d43" stroke-width="1"/>
	</g>
	<text x="174" y="414.75" fill="#000000" font-family="Verdana" font-size="12">EQUIPES</text>
	<text x="164" y="439.8" fill="#000000" font-family="Verdana" font-size="12">code équipe</text>
	<line x1="164" y1="442" x2="238" y2="442" stroke="#000000" stroke-width="1"/>
	<text x="164" y="456.8" fill="#000000" font-family="Verdana" font-size="12">nom club</text>
	<text x="164" y="473.8" fill="#000000" font-family="Verdana" font-size="12">logo</text>
	<text x="164" y="490.8" fill="#000000" font-family="Verdana" font-size="12">adresse</text>
	<text x="164" y="507.8" fill="#000000" font-family="Verdana" font-size="12">code postal</text>
	<text x="164" y="524.8" fill="#000000" font-family="Verdana" font-size="12">ville</text>
	<text x="164" y="541.8" fill="#000000" font-family="Verdana" font-size="12">latitude</text>
	<text x="164" y="558.8" fill="#000000" font-family="Verdana" font-size="12">longitude</text>
</g>

<!-- Entity POSTE -->
<g>
	<g>
		<rect x="405" y="558" width="76" height="25" fill="#fdae61" stroke="none" stroke-width="0" opacity="1"/>
		<rect x="405" y="583" width="76" height="43" fill="#fee08b" stroke="none" stroke-width="0" opacity="1"/>
		<rect x="405" y="558" width="76" height="68" fill="none" stroke="#f46d43" stroke-width="2" opacity="1"/>
		<line x1="405" y1="583" x2="481" y2="583" stroke="#f46d43" stroke-width="1"/>
	</g>
	<text x="423" y="575.75" fill="#000000" font-family="Verdana" font-size="12">POSTE</text>
	<text x="410" y="600.8" fill="#000000" font-family="Verdana" font-size="12">code poste</text>
	<line x1="410" y1="603" x2="476" y2="603" stroke="#000000" stroke-width="1"/>
	<text x="410" y="617.8" fill="#000000" font-family="Verdana" font-size="12">libellé</text>
</g>

<!-- Entity ROLE -->
<g>
	<g>
		<rect x="513" y="558" width="66" height="25" fill="#fdae61" stroke="none" stroke-width="0" opacity="1"/>
		<rect x="513" y="583" width="66" height="43" fill="#fee08b" stroke="none" stroke-width="0" opacity="1"/>
		<rect x="513" y="558" width="66" height="68" fill="none" stroke="#f46d43" stroke-width="2" opacity="1"/>
		<line x1="513" y1="583" x2="579" y2="583" stroke="#f46d43" stroke-width="1"/>
	</g>
	<text x="530" y="575.75" fill="#000000" font-family="Verdana" font-size="12">ROLE</text>
	<text x="518" y="600.8" fill="#000000" font-family="Verdana" font-size="12">code rôle</text>
	<line x1="518" y1="603" x2="574" y2="603" stroke="#000000" stroke-width="1"/>
	<text x="518" y="617.8" fill="#000000" font-family="Verdana" font-size="12">libellé</text>
</g>
</svg>